<?xml version="1.0" encoding="UTF-8" standalone="no"?>
<!-- Created with Inkscape (http://www.inkscape.org/) -->

<svg
   xmlns:dc="http://purl.org/dc/elements/1.1/"
   xmlns:cc="http://creativecommons.org/ns#"
   xmlns:rdf="http://www.w3.org/1999/02/22-rdf-syntax-ns#"
   xmlns:svg="http://www.w3.org/2000/svg"
   xmlns="http://www.w3.org/2000/svg"
   xmlns:sodipodi="http://sodipodi.sourceforge.net/DTD/sodipodi-0.dtd"
   xmlns:inkscape="http://www.inkscape.org/namespaces/inkscape"
   width="744.09448"
   height="1052.3622"
   id="svg2"
   version="1.1"
   inkscape:version="0.48.4 r9939"
   sodipodi:docname="the-background.svg">
  <defs
     id="defs4">
    <inkscape:perspective
       sodipodi:type="inkscape:persp3d"
       inkscape:vp_x="-300 : -76.676053 : 1"
       inkscape:vp_y="0 : 1000 : 0"
       inkscape:vp_z="1492.6659 : 323.32395 : 1"
       inkscape:persp3d-origin="372.04724 : 350.78739 : 1"
       id="perspective2987" />
  </defs>
  <sodipodi:namedview
     id="base"
     pagecolor="#ffffff"
     bordercolor="#666666"
     borderopacity="1.0"
     inkscape:pageopacity="0.0"
     inkscape:pageshadow="2"
     inkscape:zoom="0.7"
     inkscape:cx="312.90095"
     inkscape:cy="915.90372"
     inkscape:document-units="px"
     inkscape:current-layer="layer1"
     showgrid="true"
     showguides="false"
     inkscape:snap-global="false"
     inkscape:window-width="1024"
     inkscape:window-height="708"
     inkscape:window-x="-4"
     inkscape:window-y="-4"
     inkscape:window-maximized="1">
    <inkscape:grid
       type="xygrid"
       id="grid2985"
       empspacing="5"
       visible="true"
       enabled="true"
       snapvisiblegridlinesonly="true" />
  </sodipodi:namedview>
  <metadata
     id="metadata7">
    <rdf:RDF>
      <cc:Work
         rdf:about="">
        <dc:format>image/svg+xml</dc:format>
        <dc:type
           rdf:resource="http://purl.org/dc/dcmitype/StillImage" />
        <dc:title></dc:title>
      </cc:Work>
    </rdf:RDF>
  </metadata>
  <g
     inkscape:label="Layer 1"
     inkscape:groupmode="layer"
     id="layer1"
     transform="translate(0,4.7244096e-6)">
    <g
       id="tree-alive-g"
       transform="translate(-13.586008,-6.4285583)">
      <path
         transform="translate(0,-4.7244096e-6)"
         inkscape:connector-curvature="0"
         id="path3070"
         d="m 57.142857,199.50504 -25.714286,-50 L 17.142857,70.933611 32.857143,22.362182 85.714286,8.0764678 120,25.219325 l 17.14286,64.285714 -8.57143,71.428571 c 0,0 -2.85714,35.71429 -11.42857,37.14286 -8.57143,1.42857 -60.000003,1.42857 -60.000003,1.42857 z"
         style="fill:#008000;stroke:#000000;stroke-width:1px;stroke-linecap:butt;stroke-linejoin:miter;stroke-opacity:1" />
      <path
         sodipodi:nodetypes="ccccccc"
         transform="translate(0,-4.7244096e-6)"
         inkscape:connector-curvature="0"
         id="path3858"
         d="m 107.14286,195.21933 -50.000003,-1.42858 -25.714286,-42.85714 -7.142856,-40 24.285714,17.14286 42.857142,17.14285 z"
         style="fill:#005e00;fill-opacity:1;stroke:#000000;stroke-width:1px;stroke-linecap:butt;stroke-linejoin:miter;stroke-opacity:0" />
      <path
         transform="translate(0,-4.7244096e-6)"
         inkscape:connector-curvature="0"
         id="path3860"
         d="m 31.428571,30.933611 -14.285714,41.428571 40,12.857143 28.571429,-4.285714 -32.857143,-18.571429 z"
         style="fill:#004800;fill-opacity:1;stroke:#000000;stroke-width:1px;stroke-linecap:butt;stroke-linejoin:miter;stroke-opacity:0" />
      <path
         transform="translate(0,-4.7244096e-6)"
         inkscape:connector-curvature="0"
         id="path3862"
         d="M 87.142857,8.0764678 120,30.933611 l 12.85714,50 -48.571426,-32.857143 z"
         style="fill:#4aff4b;fill-opacity:0.56175298;stroke:#000000;stroke-width:1px;stroke-linecap:butt;stroke-linejoin:miter;stroke-opacity:0" />
      <path
         inkscape:transform-center-y="18.793795"
         inkscape:transform-center-x="-15.15683"
         inkscape:connector-curvature="0"
         id="path3862-7"
         d="m 112.82406,89.923388 20.21006,34.548432 -9.34445,50.77388 -30.267273,-50.22617 z"
         style="fill:#4aff4b;fill-opacity:0.56175298;stroke:#000000;stroke-width:1px;stroke-linecap:butt;stroke-linejoin:miter;stroke-opacity:0" />
      <path
         inkscape:connector-curvature="0"
         id="tree-dead-4"
         d="m 80,285.21932 -2.85715,-105.71428 -4.28571,-10 -27.14286,-34.28572 -2.85714,-37.14286 -4.28571,-21.42857 5.71428,24.28571 8.57143,-28.57143 -8.57143,34.28572 -1.42857,27.14286 21.42857,28.57143 7.14286,-47.14287 10,-54.28571 L 122.85714,39.50503 77.14285,66.64789 65.71428,30.93361 70,48.07646 85.71428,22.36218 70,46.64789 l 5.71428,21.42857 -4.28571,47.14285 47.14285,-18.57142 17.14286,-25.71429 -18.57143,27.14286 -24.28571,7.14285 10,-35.71428 -10,35.71428 -18.57143,7.14286 -10,42.85716 14.28572,20 z"
         style="fill:#000000;stroke:#000000;stroke-width:1px;stroke-linecap:butt;stroke-linejoin:miter;stroke-opacity:1" />
      <path
         sodipodi:nodetypes="cccc"
         transform="translate(0,-4.7244096e-6)"
         inkscape:connector-curvature="0"
         id="path3900"
         d="M 78.571429,288.07647 90,288.07647 80,193.79075 z"
         style="fill:#000000;stroke:#000000;stroke-width:1px;stroke-linecap:butt;stroke-linejoin:miter;stroke-opacity:1" />
    </g>
  </g>
</svg>
