<?xml version="1.0" encoding="UTF-8" standalone="no"?>
<!-- Created with Inkscape (http://www.inkscape.org/) -->

<svg
   xmlns:dc="http://purl.org/dc/elements/1.1/"
   xmlns:cc="http://creativecommons.org/ns#"
   xmlns:rdf="http://www.w3.org/1999/02/22-rdf-syntax-ns#"
   xmlns:svg="http://www.w3.org/2000/svg"
   xmlns="http://www.w3.org/2000/svg"
   xmlns:sodipodi="http://sodipodi.sourceforge.net/DTD/sodipodi-0.dtd"
   xmlns:inkscape="http://www.inkscape.org/namespaces/inkscape"
   width="744.09448819"
   height="1052.3622047"
   id="svg2"
   version="1.1"
   inkscape:version="0.48.4 r9939"
   sodipodi:docname="face.svg">
  <defs
     id="defs4">
    <inkscape:path-effect
       effect="spiro"
       id="path-effect3017"
       is_visible="true" />
  </defs>
  <sodipodi:namedview
     id="base"
     pagecolor="#ffffff"
     bordercolor="#666666"
     borderopacity="1.0"
     inkscape:pageopacity="0.0"
     inkscape:pageshadow="2"
     inkscape:zoom="0.98994949"
     inkscape:cx="384.11507"
     inkscape:cy="809.91243"
     inkscape:document-units="px"
     inkscape:current-layer="layer1"
     showgrid="false"
     inkscape:window-width="1024"
     inkscape:window-height="708"
     inkscape:window-x="-4"
     inkscape:window-y="-4"
     inkscape:window-maximized="1" />
  <metadata
     id="metadata7">
    <rdf:RDF>
      <cc:Work
         rdf:about="">
        <dc:format>image/svg+xml</dc:format>
        <dc:type
           rdf:resource="http://purl.org/dc/dcmitype/StillImage" />
        <dc:title></dc:title>
      </cc:Work>
    </rdf:RDF>
  </metadata>
  <g
     inkscape:label="Layer 1"
     inkscape:groupmode="layer"
     id="layer1">
    <path
       style="fill:none;stroke:#000000;stroke-width:1px;stroke-linecap:butt;stroke-linejoin:miter;stroke-opacity:1"
       d="m 54.039096,180.97847 c 0,0 38.57143,-144.285722 123.571434,-156.428572 85,-12.142862 54.28571,-10.000005 54.28571,-10.000005 0,0 87.14286,-5.7142856 142.85714,108.571427 55.71429,114.28572 -55,204.28572 -55,204.28572 0,0 -32.85714,25.71428 -60,27.85714 -27.14285,2.14286 -82.14285,-7.85714 -82.14285,-7.85714 0,0 -65.71429,-33.57143 -87.857154,-62.85714 -22.14285,-29.28572 -32.85714,-69.28572 -32.85714,-69.28572 z"
       id="path3021"
       inkscape:connector-curvature="0" />
    <path
       style="fill:#000000;stroke:#000000;stroke-width:1px;stroke-linecap:butt;stroke-linejoin:miter;stroke-opacity:1"
       d="m 134.0391,317.40704 -18.57143,-35.71429 -1.42857,-25.71428 -27.857144,-35 -8.57143,-3.57143 1.42857,-19.28572 -12.85714,-4.28571 2.14285,-14.28571 6.42857,-8.57143 -2.85714,-17.85715 17.85714,-41.42857 14.285724,-10 7.85714,-18.571432 -5,-15 -35.714284,61.428582 -17.14286,47.85714 5,47.14286 30.71428,64.28571 39.285724,31.42857 5,1.42857 z"
       id="path3025"
       inkscape:connector-curvature="0"
       sodipodi:nodetypes="ccccccccccccccccccccc" />
    <path
       style="fill:#000000;stroke:#000000;stroke-width:1px;stroke-linecap:butt;stroke-linejoin:miter;stroke-opacity:1"
       d="m 89.039096,144.5499 -8.57143,19.28571 10.71429,10 8.57142,2.14286 -2.14285,10.71428 0,12.14286 7.857144,10.71429 10.71429,0.71428 6.42857,-1.42857 0.71428,-4.28571 -3.92857,-1.42858 -11.78571,-1.78571 -8.214294,-8.92857 -1.07143,-6.42857 2.142864,-9.28572 8.92857,0.35715 12.85714,2.5 8.57143,7.85714 -7.85714,-7.85714 -22.5,-3.92858 -1.785714,12.5 3.214284,7.85715 5,4.28571 5,1.42857 11.07143,1.78572 2.85714,-3.57143 3.92857,-12.5 2.85715,-4.64286 4.64285,15.71429 -2.14285,46.78571 6.07143,7.14286 0.35714,10.71428 4.28571,7.14286 7.85715,-0.35714 6.42857,-15.71429 8.57143,-17.85714 3.57142,3.57143 -6.07142,9.28571 0.35714,4.28572 8.57143,-2.14286 6.78571,-7.14286 0.71429,-10 -3.21429,-3.92857 -10.35714,-2.5 1.07143,-2.5 13.21428,2.5 14.28572,6.78572 17.14285,10 13.21429,11.42857 7.14286,16.07143 1.78571,11.07142 -5.35714,-15.35714 -11.07143,-16.42857 -19.64286,-10.35714 -15,3.92857 -1.78571,2.85714 c 0,0 12.14286,0 14.28571,0.35714 2.14286,0.35715 11.78572,7.85715 11.78572,7.85715 l 10,18.57143 7.85714,31.78571 2.85714,14.28571 -4.64285,-20 -8.57143,-25.71428 -7.5,-12.85714 -11.07143,-9.64286 -13.57143,0.35714 -8.92857,2.85714 -9.64286,4.28572 -5,1.42857 -3.21428,7.14286 1.07142,15.71428 1.07143,6.78572 -12.85714,-11.78572 -6.07143,-2.85714 -3.92857,-5 -2.14286,-10 -6.07143,0 -4.64285,1.42857 0,10.35714 16.42857,25.71429 7.5,13.92857 -0.35714,10.71429 -1.42858,-10.35715 -23.57142,-39.28571 0.35714,-13.92857 8.92857,-3.21429 5,1.78572 -4.64286,-10.35715 -6.07143,-5.35714 -6.42857,8.92857 -5,11.07143 -5,-3.57143 6.42857,-11.07143 6.07143,-10.71428 0.35715,-10.71429 -13.57143,-6.78571 -16.785724,-9.64286 -8.21428,-17.85714 -8.92857,-30.71429 z"
       id="path3027"
       inkscape:connector-curvature="0" />
    <path
       style="fill:#000000;stroke:#000000;stroke-width:1px;stroke-linecap:butt;stroke-linejoin:miter;stroke-opacity:1"
       d="m 156.89624,329.5499 5.35714,-5.71429 -0.71428,-26.78571 7.14286,22.14285 -3.57143,0 -0.35715,9.64286 z"
       id="path3029"
       inkscape:connector-curvature="0" />
    <path
       style="fill:#000000;stroke:#000000;stroke-width:1px;stroke-linecap:butt;stroke-linejoin:miter;stroke-opacity:1"
       d="m 178.68196,263.83561 11.78571,7.14286 6.07143,20 -6.07143,-18.21429 z"
       id="path3031"
       inkscape:connector-curvature="0" />
    <path
       style="fill:#000000;stroke:#000000;stroke-width:1px;stroke-linecap:butt;stroke-linejoin:miter;stroke-opacity:1"
       d="m 199.0391,301.33561 10.71428,11.42857 21.07143,14.28572 3.92857,-3.92858 -1.78571,4.64286 c 0,0 -4.28571,0 -6.78571,0 -2.5,0 -17.85715,-11.42857 -17.85715,-11.42857 z"
       id="path3033"
       inkscape:connector-curvature="0" />
    <path
       style="fill:#000000;stroke:#000000;stroke-width:1px;stroke-linecap:butt;stroke-linejoin:miter;stroke-opacity:1"
       d="m 251.18196,319.19275 -2.85715,-16.42857 7.5,-23.92857 18.21429,-14.28571 15,-5.35715 1.07143,-4.64285 -2.14286,3.57142 -13.92857,2.14286 -23.21429,11.07143 -6.78571,12.14286 2.5,24.28571 z"
       id="path3035"
       inkscape:connector-curvature="0" />
    <path
       style="fill:#000000;stroke:#000000;stroke-width:1px;stroke-linecap:butt;stroke-linejoin:miter;stroke-opacity:1"
       d="m 149.75338,126.69275 -3.57142,10.71429 -5.71429,8.92857 0.71429,12.85714 1.42857,2.5 0.35714,22.85715 -3.21429,2.14285 1.07143,10 9.64286,3.21429 -8.57143,-4.64286 1.78572,-7.5 15,-0.71428 10.71428,-0.35715 1.07143,8.92857 -5,13.21429 -4.64286,7.85714 4.28572,1.07143 7.14285,0.71429 1.78572,-5.35715 5,-7.5 2.14286,2.85715 6.07142,8.92857 13.21429,10.35714 13.21429,4.28572 18.57142,4.64285 15.71429,-4.64285 20.71429,-16.78572 10.35714,-6.78571 6.78571,-1.78572 3.57143,9.64286 1.42857,29.64286 0.35715,-31.78572 -2.85715,-8.92857 -4.64285,-2.14286 -17.14286,5.71429 -15.71429,9.64286 -0.35714,-19.64286 0.35714,-5.35714 -4.28571,1.42857 0,10.35714 -0.35714,6.78572 -0.35715,6.78571 -2.5,8.57143 -10,4.64286 c 0,0 -10.71428,-0.35715 -13.92857,-1.42858 -3.21428,-1.07142 -14.28571,-9.64285 -14.28571,-9.64285 l -5.35715,-6.07143 -0.71428,-7.85714 8.21428,10 10.35715,6.78571 14.28571,0 7.85714,-4.28571 5.35715,-9.28572 -5.35715,8.92857 -7.5,4.28572 -15.71428,0 -11.78572,-8.92857 -6.07142,-8.57143 13.92857,-12.85715 14.64285,-7.85714 10.71429,0.35714 8.21429,8.21429 1.78571,-0.71429 -11.42857,-8.57142 6.42857,-1.42858 5,3.21429 1.42857,5.71429 1.42857,3.21428 0.35715,-15.35714 5.71428,-4.28572 13.57143,-2.85714 10.71429,-10.35714 2.14285,-11.07143 0.35715,-31.42857 -5.35715,35.71428 -12.85714,11.78572 -25,6.07143 -36.78571,4.28571 -23.21429,3.92857 -12.14286,2.85715 -22.85714,1.07142 -0.71429,-39.28571 0.71429,-6.42857 5,-5.35714 z"
       id="path3037"
       inkscape:connector-curvature="0" />
    <path
       style="fill:#000000;stroke:#000000;stroke-width:1px;stroke-linecap:butt;stroke-linejoin:miter;stroke-opacity:1"
       d="m 307.96767,121.33561 -13.92857,22.14286 2.5,10.35714 15,20.35714 -21.78572,-25.35714 -0.35714,-7.5 z"
       id="path3039"
       inkscape:connector-curvature="0" />
    <path
       style="fill:#000000;stroke:#000000;stroke-width:1px;stroke-linecap:butt;stroke-linejoin:miter;stroke-opacity:1"
       d="m 164.0391,98.478472 17.14286,-10.000004 13.92857,-5.35715 26.78571,-2.14285 -26.07143,0.71428 z"
       id="path3041"
       inkscape:connector-curvature="0" />
    <path
       style="fill:none;stroke:#000000;stroke-width:1px;stroke-linecap:butt;stroke-linejoin:miter;stroke-opacity:1"
       d="m 112.61053,95.264178 c 1.42857,0 11.42857,-3.92857 11.42857,-3.92857 l 16.07143,4.28571 -15.35715,-4.28571 z"
       id="path3043"
       inkscape:connector-curvature="0" />
    <path
       style="fill:#000000;stroke:#000000;stroke-width:1px;stroke-linecap:butt;stroke-linejoin:miter;stroke-opacity:1"
       d="m 103.32481,105.62132 13.21429,-1.78571 8.92857,9.64286 -10.35714,-8.92857 z"
       id="path3047"
       inkscape:connector-curvature="0" />
    <path
       style="fill:#000000;stroke:#000000;stroke-width:1px;stroke-linecap:butt;stroke-linejoin:miter;stroke-opacity:1"
       d="m 161.89624,62.407038 12.5,1.07143 33.57143,-1.07143 31.42857,-10 11.07143,-5 -19.28571,8.92857 -20.71429,7.5 -34.64286,0.71429 -1.78571,2.14285 -7.5,-0.35714 z"
       id="path3049"
       inkscape:connector-curvature="0" />
    <path
       style="fill:#000000;stroke:#000000;stroke-width:1px;stroke-linecap:butt;stroke-linejoin:miter;stroke-opacity:1"
       d="m 349.12769,296.79446 6.06091,62.12438 -3.03045,0 -7.57615,-57.57869 z"
       id="path3051"
       inkscape:connector-curvature="0" />
  </g>
</svg>
